# xmcd CD database file
#
# Track frame offsets:
#	150
#	23672
#	45991
#	61324
#	72908
#	84607
#	100331
#	111365
#	141264
#	153406
#	169452
#	178259
#	197127
#	212439
#	234388
#	248369
#	268158
#	278221
#	289094
#	300553
#	314419
#	328682
#	348011
#
# Disc length: 4845 seconds
#
# Revision: 0
# Processed by: cddbd v1.5.1PL2 Copyright (c) Steve Scherf et al.
# Submitted via: Feurio! 1.68 - http://www.feurio.com
#
DISCID=4f12eb17
DTITLE=Various Artist - Doug Sahm - My Private Mix
DYEAR=1900
DGENRE=Countryrock
TTITLE0=Texas Tornados - Mendocino
TTITLE1=Texas tornados - Yellow rose
TTITLE2=Texas Tornados - Texas Ranger Man
TTITLE3=Sir Douglas Quintet - I'm Leaving It up to You
TTITLE4=Doug Sahm and Band - Wallflower
TTITLE5=Texas Tornados - Double Bogey Blues
TTITLE6=Sir Douglas Quintet - And I Didn't Even Bring Me Down
TTITLE7=Doug Sahm and The Gourds - Get a Life
TTITLE8=Sir Douglas Quintet - Baby, Let's Go to Mexico
TTITLE9=Texas Tornadoes - Mentiras
TTITLE10=Doug Sahm - I Don't Mind At all
TTITLE11=Doug Sahm Band - Can't Fake It
TTITLE12=Doug Sahm - My Dearest Darling
TTITLE13=Doug Sahm - Yesterday Got In The Way
TTITLE14=Texas Tornados - Marina
TTITLE15=Texas Tornados - To Ramona
TTITLE16=Doug Sahm - Nothin' But The Blues
TTITLE17=Sir Douglas Quintet - What About Tomorrow
TTITLE18=Sir Douglas Quintet - I'm A Fool To Care
TTITLE19=Texas Tornados - Back To Salome
TTITLE20=Doug Sahm - What's Your Name
TTITLE21=Texas Tornados - South of the Border
TTITLE22=Texas Tornados - He is a Tejano
EXTD=
EXTT0=
EXTT1=
EXTT2=
EXTT3=
EXTT4=
EXTT5=
EXTT6=
EXTT7=
EXTT8=
EXTT9=
EXTT10=
EXTT11=
EXTT12=
EXTT13=
EXTT14=
EXTT15=
EXTT16=
EXTT17=
EXTT18=
EXTT19=
EXTT20=
EXTT21=
EXTT22=
PLAYORDER=
